<svg width="16" height="16" viewBox="0 0 16 16" fill="none" xmlns="http://www.w3.org/2000/svg">
    <path
        d="M8 0C3.58175 0 0 3.58175 0 8C0 11.8659 2.63562 15.2215 6.30236 15.9122C6.88453 15.9864 7.09672 15.6053 7.09672 15.3388C7.09672 15.0536 7.08521 14.1762 7.0793 13.0629C4.92603 13.7644 4.18485 12.6207 4.18485 12.6207C3.68772 11.8111 2.93125 11.4741 2.93125 11.4741C2.00425 10.8209 3.05843 10.8387 3.05843 10.8387C4.15218 10.8875 4.69894 11.9256 4.69894 11.9256C5.52089 13.0844 6.55699 12.7683 7.10242 12.499C7.18843 11.924 7.42003 11.4976 7.67986 11.2462C5.24213 10.9772 2.98275 9.95657 2.98275 7.07259C2.98275 6.17042 3.28153 5.41957 3.83369 4.83344C3.7315 4.58514 3.39396 3.71997 3.90147 2.78733C3.90147 2.78733 4.8873 2.47545 7.08515 3.89534C7.08515 3.89534 8.45814 3.51164 8 2.00759C7.55516 3.51164 8.92814 3.89534 8.92814 3.89534C11.126 2.47545 12.1121 2.78733 12.1121 2.78733C12.6196 3.71997 12.2821 4.58514 12.1799 4.83344C12.7321 5.41957 13.0309 6.17042 13.0309 7.07259C13.0309 9.96199 10.7702 10.9769 8.33243 11.2462C8.59415 11.4947 8.80907 11.9981 8.80907 12.6894C8.80907 13.1579 8.8016 13.8464 8.79273 14.3902C8.78001 15.1582 8.99423 15.9864 8.99423 15.9864C8.99423 15.9864 9.2073 15.9864 9.44143 15.9122C13.3642 15.2215 16 11.8659 16 8C16 3.58175 12.4183 0 8 0Z"
        fill="white" />
</svg>